<svg width="0" height="0" fill="none" xmlns="http://www.w3.org/2000/svg"><path d="M19.36 22.55l6.96-11.13c5.05-8.13 16.65-4.2 11.3 4.98l-5.56 9.55c-2.41 3.99-7.98 3.88-10.7-.12l-2.12-3.1.12-.18z" fill="#EBFF00"/><path d="M19.36 22.55l6.96-11.13c5.05-8.13 16.65-4.2 11.3 4.98l-5.56 9.55c-2.41 3.99-7.98 3.88-10.7-.12l-2.12-3.1.12-.18z" fill="url(#paint0_linear)"/><path d="M31.68 26.6l.04-.06.13-.22-.17.28z" fill="#EBFF00"/><path d="M31.68 26.6l.04-.06.13-.22-.17.28z" fill="url(#paint1_linear)"/><path d="M21.35 25.83l-4.1-6.04c-5.79-8.49-15.91-1.22-10.9 6.4 1.68 2.54 2.34 3.5 4.02 6.05 4.6 6.9 14.02 6.86 18.02 0l3.74-6.41c-2.37 4.11-8.02 4.04-10.78 0z" fill="#02BE9C"/><path d="M21.35 25.83l-4.1-6.04c-5.79-8.49-15.91-1.22-10.9 6.4 1.68 2.54 2.34 3.5 4.02 6.05 4.6 6.9 14.02 6.86 18.02 0l3.74-6.41c-2.37 4.11-8.02 4.04-10.78 0z" fill="url(#paint2_linear)"/><defs><linearGradient id="paint0_linear" x1="16.49" y1="42.04" x2="39.5" y2="3.5" gradientUnits="userSpaceOnUse"><stop stop-color="#28BD7C"/><stop offset="1" stop-color="#38CF90" stop-opacity="0"/></linearGradient><linearGradient id="paint1_linear" x1="16.49" y1="42.04" x2="39.5" y2="3.5" gradientUnits="userSpaceOnUse"><stop stop-color="#28BD7C"/><stop offset="1" stop-color="#38CF90" stop-opacity="0"/></linearGradient><linearGradient id="paint2_linear" x1="32.12" y1="57.74" x2="10.23" y2="21.47" gradientUnits="userSpaceOnUse"><stop stop-color="#414B80"/><stop offset="1" stop-color="#414B80" stop-opacity="0"/></linearGradient></defs></svg>